<?xml version="1.0" encoding="UTF-8" standalone="no"?>
<!-- Created with Inkscape (http://www.inkscape.org/) -->

<svg
   width="24.216091mm"
   height="21.739056mm"
   viewBox="0 0 24.216091 21.739056"
   version="1.1"
   id="svg1"
   xmlns="http://www.w3.org/2000/svg"
   xmlns:svg="http://www.w3.org/2000/svg">
  <defs
     id="defs1" />
  <path
     style="font-size:22.1083px;stroke-width:0.230294"
     d="m 4.9146274,7.7568092 q 0,0.2552317 0.1575201,0.4327838 0.1680214,0.1664551 0.4095527,0.1664551 0.2415303,0 0.3990504,-0.1664551 Q 6.048772,8.0120409 6.048772,7.7568092 V 7.2574438 q 0,-0.2552307 -0.1680214,-0.4216858 -0.1575201,-0.1775521 -0.3990504,-0.1775521 -0.2415313,0 -0.4095527,0.1775521 Q 4.9146274,7.0022131 4.9146274,7.2574438 Z M 5.3241801,-4.9792695e-7 Q 3.1188987,-4.9792695e-7 1.5646992,1.642357 -4.893014e-7,3.2958114 -4.893014e-7,5.6150863 v 8.9663847 0 0.06658 Q 0.01050565,16.14615 0.82960609,17.36682 q 0.55657051,0.798985 1.38617711,1.242866 0.8296056,0.44388 1.7537236,0.466074 -0.042005,0.632529 0.1995252,1.209574 0.2520326,0.599239 0.7560967,0.987634 0.5040641,0.388395 1.1236433,0.443881 l 0.073514,0.0111 h 0.010497 q 0.08401,0 0.1575201,0 h 2.0792651 q 0.8926142,0 1.6277083,-0.63253 0.7350943,-0.63253 1.3966783,-1.664551 0,0.04439 0,0.09988 v 1.032023 q 0,0.410589 0.273035,0.699111 0.273035,0.288523 0.651083,0.288523 h 2.079266 q 0.388549,0 0.661584,-0.288523 0.273036,-0.288522 0.273036,-0.699111 v -4.283447 h 1.690716 q 0.09452,0 0.168021,0.06658 0.06301,0.06658 0.06301,0.166455 v 2.641088 q 0,1.065314 0.714091,1.81991 0.714091,0.765694 1.732721,0.765694 h 2.068764 q 1.018631,-0.0111 1.72222,-0.765694 0.724593,-0.754596 0.724593,-1.81991 v -9.044063 q 0,-2.0085593 -0.724593,-3.8728566 Q 22.766907,4.383328 21.412234,2.9629104 20.068062,1.5313958 18.314338,0.76570176 16.550112,8.7538066e-6 14.64937,8.7538066e-6 Z M 17.726264,2.2415948 q 1.480689,0.6436267 2.614834,1.8532014 1.134144,1.1984768 1.753724,2.7631557 0.609077,1.5646778 0.609077,3.2514241 v 9.044063 q 0,0.188649 -0.07351,0.377298 -0.07351,0.177552 -0.199526,0.321813 -0.136517,0.133165 -0.304538,0.210844 -0.178524,0.07767 -0.357047,0.07767 H 19.69001 q -0.178523,0 -0.357046,-0.07767 -0.168022,-0.07768 -0.294037,-0.210844 -0.136517,-0.144261 -0.210027,-0.321813 -0.06301,-0.188649 -0.06301,-0.377298 v -2.629991 q 0,-0.366201 -0.136517,-0.710209 -0.136518,-0.33291 -0.378049,-0.588142 -0.241531,-0.266328 -0.567072,-0.399491 -0.31504,-0.144262 -0.661584,-0.144262 h -3.780479 q -0.546069,0.04439 -0.987126,0.388395 -0.441056,0.332911 -0.661585,0.865567 l -0.199525,0.388396 q -0.294038,0.565947 -0.661584,1.22067 -0.357046,0.654724 -0.7560968,1.242866 -0.3990514,0.599239 -0.8086031,0.976537 -0.4095526,0.377298 -0.7981027,0.377298 H 6.2377968 q -0.031509,-0.0111 -0.042005,-0.0111 -0.2205277,-0.03329 -0.3990504,-0.166455 -0.1785226,-0.144262 -0.2625338,-0.355104 -0.08401,-0.22194 -0.052501,-0.454978 0.021003,-0.22194 0.1575201,-0.410589 L 6.9308907,16.856353 Q 7.3509447,16.279308 7.4349549,15.558003 7.5189651,14.8256 7.2564322,14.159779 6.9728958,13.493958 6.4583304,13.016787 6.1012851,12.683876 5.6707299,12.484131 6.017274,12.051348 6.2168001,11.496497 6.4268266,10.941647 6.4268266,10.331311 V 9.9318188 H 4.3055554 v 0.3994922 q 0,0.44388 -0.2940376,0.754597 -0.2940377,0.310716 -0.7140906,0.310716 -0.4410565,0 -0.7560967,0.33291 -0.3045389,0.321814 -0.3045389,0.787887 0,0.466075 0.3045389,0.798985 0.3150402,0.321814 0.7560967,0.321814 0.1575201,0 0.2940376,-0.02219 v 0.96544 q 0,0.288522 0.1470188,0.543753 0.042005,0.06658 0.1050128,0.09988 0.115515,0.05548 0.2520325,0.05548 0.4305552,0 0.7350942,0.321813 0.3045389,0.321814 0.3045389,0.776791 0,0.454978 -0.3045389,0.776791 -0.304539,0.321814 -0.7350942,0.321814 Q 3.4969524,17.488876 2.9508822,17.211456 2.4153142,16.93403 2.0582689,16.423568 1.5016974,15.591292 1.5121987,14.581465 V 5.6150802 q 0,-0.7989849 0.2940377,-1.5313871 Q 2.0897727,3.340193 2.6253407,2.7742459 3.1609096,2.2082979 3.8644989,1.8975815 4.557588,1.597963 5.3241859,1.597963 h 2.110769 v 6.3363921 q 0,0.8211787 0.5460702,1.3871268 Q 8.5270953,9.887429 9.283191,9.887429 h 4.85162 q 0.577574,0 1.029131,-0.3218134 Q 15.6155,9.2438023 15.836029,8.722243 16.056556,8.1895868 15.962045,7.5903479 v 0 Q 15.615494,5.6039894 14.460347,4.0282136 13.315701,2.4524388 11.645988,1.5979692 h 3.003383 q 1.596203,0 3.076893,0.6436256 z M 8.9366411,1.5979692 h 0.021003 q 1.5752023,0.1775521 2.8878693,1.0209247 1.323169,0.8322757 2.205281,2.1639168 0.882113,1.3205441 1.16565,2.9518046 0.08401,0.5326562 -0.241532,0.9432461 -0.325541,0.4105889 -0.840107,0.4105889 H 9.2831851 q -0.4410555,0 -0.7665979,-0.3329103 Q 8.201547,8.4226297 8.201547,7.9343613 V 1.5979692 Z M 3.2974213,12.195613 q 0.6405817,0 1.113142,-0.421686 0.4830616,-0.421686 0.6090778,-1.043119 h 0.6195792 q -0.1470189,0.887761 -0.8086031,1.498097 -0.6510839,0.610335 -1.5331959,0.610335 -0.3045389,0 -0.3045389,-0.321814 0,-0.321813 0.3045389,-0.321813 z"
     id="text17"
     aria-label="ðŸ˜" />
</svg>
